<svg width="54" height="54" viewBox="0 0 54 54" fill="none" xmlns="http://www.w3.org/2000/svg">
<path d="M6.06536 35.1978C7.42864 35.0513 8.79946 35.4003 9.92648 36.1812C11.0536 36.9622 11.8619 38.1233 12.2036 39.4512C12.5452 40.7792 12.3971 42.186 11.7869 43.414L11.6672 43.6542L11.8538 43.8485C14.5775 46.6876 18.0334 48.7094 21.8317 49.6952L22.5955 49.8786C22.8142 49.9267 23.0343 49.9712 23.2549 50.0129L23.9198 50.1289L23.9218 50.1287C24.1238 50.1598 24.3258 50.1881 24.5277 50.2136L25.1326 50.2819C30.1967 50.7854 35.2674 49.4505 39.425 46.5305L41.0236 48.7218C38.4561 50.5357 35.5577 51.8258 32.4923 52.5144L31.8518 52.6493C31.3011 52.7571 30.7492 52.8456 30.1961 52.9145L29.4016 52.9987C28.8708 53.0467 28.3387 53.0776 27.8059 53.0902L27.0065 53.0953C24.6327 53.0722 22.2761 52.7 20.0125 51.9904L19.5613 51.8439L19.5603 51.844C15.952 50.6379 12.6847 48.5857 10.0308 45.8597L9.82206 45.6456L9.56338 45.7969C8.38091 46.4906 6.98833 46.7359 5.64012 46.4873C4.2917 46.2386 3.07776 45.5123 2.22049 44.4422C1.36321 43.3719 0.919142 42.0287 0.970771 40.6584C1.02244 39.2882 1.56617 37.9827 2.50149 36.9801C3.43687 35.9774 4.70197 35.3444 6.06536 35.1978ZM36.0205 7.75657C41.1729 10.0346 45.3644 14.0541 47.8523 19.1176C50.3964 24.2952 50.9896 30.2163 49.5233 35.7958L49.447 36.0838L49.7079 36.2274C50.764 36.8092 51.609 37.7108 52.1209 38.8025C52.6327 39.8941 52.7851 41.1199 52.557 42.3037C52.3288 43.4876 51.7313 44.5686 50.8504 45.3918C49.9731 46.2117 48.8597 46.7334 47.6686 46.8835L47.4836 46.8918L47.4759 46.8927L47.468 46.8927L47.1856 46.9092C45.7746 46.9553 44.3923 46.4758 43.3103 45.5585C42.1563 44.5801 41.4384 43.1836 41.3141 41.6758C41.1898 40.168 41.6691 38.6724 42.6473 37.5182C43.6258 36.364 45.0228 35.6453 46.5308 35.521L46.7977 35.4985L46.8679 35.2408C47.8913 31.4696 47.8511 27.4936 46.7596 23.7521L46.527 23.0065C46.3784 22.5587 46.2096 22.1134 46.0211 21.6711C45.9284 21.4535 45.8386 21.2455 45.7515 21.0473L45.4991 20.4824L45.4963 20.4758L45.2817 20.041C43.0739 15.6896 39.4305 12.2327 34.9676 10.2545L36.0205 7.75657ZM26.0224 1.09164C27.3726 0.861866 28.7604 1.12575 29.9323 1.83477C31.1043 2.54395 31.9822 3.65144 32.4052 4.9544C32.8281 6.2573 32.7683 7.66925 32.2363 8.93156C31.7043 10.1936 30.7358 11.2219 29.5081 11.8291C28.2801 12.4363 26.8748 12.5812 25.5487 12.2376C24.2228 11.894 23.0645 11.0853 22.2859 9.95837L22.1334 9.73725L21.8743 9.80593C17.8648 10.8591 14.2552 13.0634 11.488 16.1422L11.2223 16.443L11.2215 16.444C11.1027 16.5825 10.9854 16.7224 10.8693 16.8638L10.5251 17.2925L10.5243 17.2936C10.4265 17.4192 10.3317 17.5444 10.2404 17.6694L9.98104 18.0363C6.96495 22.2605 5.60525 27.4402 6.15032 32.5931L3.46005 32.9351C2.90257 27.8618 3.98695 22.7443 6.55215 18.3345L6.81083 17.8988L6.81179 17.8987C7.75217 16.3565 8.86199 14.9254 10.1203 13.6318L10.6684 13.0863L10.6693 13.0852C13.562 10.2932 17.1136 8.2778 20.994 7.22601L21.2834 7.14765L21.2756 6.84846C21.2437 5.47893 21.706 4.14345 22.5775 3.08644C23.4489 2.02948 24.6719 1.32151 26.0224 1.09164Z" fill="#3A5978" stroke="#3A5978" stroke-width="0.76379"/>
</svg>
